<svg xmlns="http://www.w3.org/2000/svg" xmlns:v="https://svgstorm.com"
viewBox = "0 0 500 500"
width="500"
height="500">
<g fill="None" fill-opacity="0.0" stroke="#000000" stroke-opacity="0.00" stroke-width="0.3"><path d="
M 0.00 500.00 
L 500.00 500.00
L 500.00 0.00
L 0.00 0.00
L 0.00 500.00
M 360.00 55.00 
C 360.32 54.76 361.00 55.00 361.00 55.00
C 373.14 53.69 387.97 59.15 399.03 61.97 C 410.08 64.80 420.48 70.19 430.08 75.92 C 439.68 81.65 447.24 87.51 455.25 95.75 C 463.26 103.99 469.65 110.65 475.75 120.25 C 481.86 129.85 486.19 139.73 489.99 151.01 C 493.79 162.28 497.84 175.78 497.00 189.00 C 496.16 202.22 498.77 218.60 494.02 231.02 C 489.28 243.45 487.55 253.44 493.31 265.69 C 499.06 277.94 495.76 293.71 497.00 307.00 C 498.24 320.29 494.90 334.77 491.22 346.22 C 487.55 357.67 483.39 367.59 477.23 377.23 C 471.07 386.87 465.74 394.62 457.75 402.75 C 449.76 410.88 442.08 417.00 432.75 422.75 C 423.42 428.50 413.20 435.17 402.33 437.33 C 391.45 439.48 375.68 448.29 364.00 445.00
C 361.98 445.40 360.60 445.51 359.00 447.00
C 357.13 456.49 344.07 461.35 337.30 468.30 C 330.53 475.25 320.08 479.78 310.77 484.77 C 301.46 489.76 289.20 492.70 278.00 495.00 C 266.80 497.29 248.09 497.62 236.00 497.00 C 223.91 496.38 211.24 493.63 200.78 489.22 C 190.31 484.81 180.59 482.31 171.92 475.08 C 163.24 467.85 154.75 465.25 148.30 455.70 C 141.84 446.16 128.99 443.16 117.33 442.67 C 105.67 442.19 95.10 436.03 84.92 432.08 C 74.73 428.13 66.39 422.07 57.92 416.08 C 49.45 410.10 43.46 402.60 36.08 394.92 C 28.71 387.24 24.08 377.97 18.68 368.32 C 13.27 358.68 9.80 348.62 7.00 337.00 C 4.21 325.38 1.79 310.97 3.00 298.00 C 4.21 285.03 3.27 272.52 8.78 260.78 C 14.29 249.03 7.77 238.82 5.07 226.93 C 2.38 215.03 2.60 198.29 3.00 186.00 C 3.40 173.71 6.42 160.75 9.99 149.99 C 13.56 139.24 18.73 130.63 24.30 121.30 C 29.88 111.98 36.01 104.60 43.75 96.75 C 51.50 88.90 58.75 83.45 67.30 77.30 C 75.84 71.14 86.18 67.90 96.68 63.68 C 107.17 59.45 121.10 56.33 133.00 56.00
C 135.71 55.61 138.78 54.68 141.00 53.00
C 148.52 39.47 162.82 32.27 175.25 23.25 C 187.67 14.23 205.50 8.93 221.07 5.07 C 236.65 1.21 264.81 2.02 280.22 5.78 C 295.63 9.54 314.14 14.22 326.08 23.92 C 338.02 33.61 355.35 40.80 360.00 55.00 Z"/>
</g>
<g fill="None" fill-opacity="0.0" stroke="#FBB115" stroke-opacity="0.98" stroke-width="0.3"><path d="
M 141.00 53.00 
C 141.04 52.94 141.04 55.15 140.00 56.00
C 181.53 56.00 221.36 69.56 249.00 102.00
C 278.89 72.66 318.00 54.41 360.00 55.00
C 355.35 40.80 338.02 33.61 326.08 23.92 C 314.14 14.22 295.63 9.54 280.22 5.78 C 264.81 2.02 236.65 1.21 221.07 5.07 C 205.50 8.93 187.67 14.23 175.25 23.25 C 162.82 32.27 148.52 39.47 141.00 53.00 Z"/>
</g>
<g fill="None" fill-opacity="0.0" stroke="#FCB216" stroke-opacity="0.18" stroke-width="0.3"><path d="
M 133.00 56.00 
C 135.00 55.94 137.00 56.00 139.00 56.00
C 139.50 56.00 140.00 56.00 140.00 56.00
C 141.04 55.15 141.04 52.94 141.00 53.00
C 138.78 54.68 135.71 55.61 133.00 56.00 Z"/>
</g>
<g fill="None" fill-opacity="0.0" stroke="#F58A1F" stroke-opacity="1.00" stroke-width="0.3"><path d="
M 140.00 56.00 
C 140.00 56.00 139.50 56.00 139.00 56.00
C 125.04 82.15 104.48 108.39 110.00 140.00
C 119.51 133.41 132.13 131.69 143.00 133.00 C 153.87 134.31 161.13 143.55 167.77 150.23 C 174.41 156.91 180.62 171.57 189.08 163.08 C 197.54 154.59 212.14 157.10 221.00 152.00
C 227.14 145.36 227.09 132.27 233.30 125.30 C 239.51 118.34 242.42 107.38 251.00 103.00
C 259.61 114.22 269.39 125.55 273.00 139.00
C 299.79 125.46 321.69 140.82 336.00 163.00
C 351.64 158.15 362.67 162.67 379.07 162.93 C 395.47 163.18 388.13 181.51 383.68 192.68 C 379.23 203.85 375.12 215.05 367.00 224.00
C 375.36 245.29 393.41 275.41 380.00 298.00
C 380.07 308.10 391.45 320.25 389.99 331.01 C 388.54 341.77 381.00 334.94 375.00 338.00 C 369.00 341.05 359.25 337.97 354.00 339.00 C 348.75 340.03 336.17 339.02 337.00 336.00
C 317.88 352.34 293.43 382.08 266.00 376.00
C 264.65 381.91 259.82 383.64 257.23 389.23 C 254.64 394.82 248.93 398.02 246.23 392.77 C 243.53 387.52 238.18 384.02 236.75 380.25 C 235.31 376.48 227.05 367.60 230.00 366.00
C 216.82 362.00 202.25 357.56 188.98 353.02 C 175.70 348.49 161.35 345.81 149.00 339.00
C 136.96 337.69 122.18 340.02 110.00 335.00
C 112.70 321.36 114.90 306.34 123.00 295.00
C 123.95 287.15 127.55 278.54 133.25 272.25 C 138.94 265.96 148.74 262.01 141.75 255.25 C 134.76 248.49 132.14 243.34 126.25 236.75 C 120.36 230.17 116.97 225.19 111.25 218.75 C 105.53 212.32 101.66 206.60 96.23 199.77 C 90.80 192.94 88.07 182.04 89.00 173.00
C 72.99 178.74 61.51 187.84 48.25 199.25 C 34.99 210.65 28.68 222.68 19.08 237.08 C 9.48 251.48 20.19 267.91 29.92 281.08 C 39.65 294.25 50.51 304.86 64.08 313.92 C 77.65 322.98 93.88 331.54 110.00 335.00
C 107.22 348.52 108.46 367.24 110.93 380.07 C 113.40 392.90 116.54 407.66 122.92 418.08 C 129.31 428.49 132.56 444.40 146.00 445.00 C 159.44 445.60 176.77 441.86 189.02 438.02 C 201.28 434.19 212.26 428.37 222.70 421.70 C 233.14 415.02 241.61 407.18 250.00 398.00
C 278.57 428.69 317.41 445.45 359.00 445.00
C 360.16 444.77 360.62 443.96 362.00 444.00
C 370.89 436.96 372.67 424.94 378.92 414.92 C 385.18 404.91 387.58 391.41 390.00 379.00 C 392.42 366.59 392.12 348.25 391.00 335.00
C 403.74 331.85 415.56 326.39 427.08 320.08 C 438.59 313.76 446.21 306.42 456.25 297.25 C 466.29 288.08 470.05 279.22 478.31 268.30 C 486.56 257.39 487.71 243.86 479.08 232.92 C 470.45 221.98 467.19 213.10 457.25 203.75 C 447.31 194.40 439.49 187.40 427.92 181.08 C 416.36 174.75 404.19 168.16 391.00 166.00
C 395.97 125.78 384.86 86.36 361.00 55.00
C 361.00 55.00 360.32 54.76 360.00 55.00
C 318.00 54.41 278.89 72.66 249.00 102.00
C 221.36 69.56 181.53 56.00 140.00 56.00 Z"/>
</g>
<g fill="None" fill-opacity="0.0" stroke="#FCB114" stroke-opacity="0.98" stroke-width="0.3"><path d="
M 362.00 444.00 
C 363.43 444.04 363.15 444.76 364.00 445.00
C 375.68 448.29 391.45 439.48 402.33 437.33 C 413.20 435.17 423.42 428.50 432.75 422.75 C 442.08 417.00 449.76 410.88 457.75 402.75 C 465.74 394.62 471.07 386.87 477.23 377.23 C 483.39 367.59 487.55 357.67 491.22 346.22 C 494.90 334.77 498.24 320.29 497.00 307.00 C 495.76 293.71 499.06 277.94 493.31 265.69 C 487.55 253.44 489.28 243.45 494.02 231.02 C 498.77 218.60 496.16 202.22 497.00 189.00 C 497.84 175.78 493.79 162.28 489.99 151.01 C 486.19 139.73 481.86 129.85 475.75 120.25 C 469.65 110.65 463.26 103.99 455.25 95.75 C 447.24 87.51 439.68 81.65 430.08 75.92 C 420.48 70.19 410.08 64.80 399.03 61.97 C 387.97 59.15 373.14 53.69 361.00 55.00
C 384.86 86.36 395.97 125.78 391.00 166.00
C 404.19 168.16 416.36 174.75 427.92 181.08 C 439.49 187.40 447.31 194.40 457.25 203.75 C 467.19 213.10 470.45 221.98 479.08 232.92 C 487.71 243.86 486.56 257.39 478.31 268.30 C 470.05 279.22 466.29 288.08 456.25 297.25 C 446.21 306.42 438.59 313.76 427.08 320.08 C 415.56 326.39 403.74 331.85 391.00 335.00
C 392.12 348.25 392.42 366.59 390.00 379.00 C 387.58 391.41 385.18 404.91 378.92 414.92 C 372.67 424.94 370.89 436.96 362.00 444.00 Z"/>
</g>
<g fill="None" fill-opacity="0.0" stroke="#FBB114" stroke-opacity="0.98" stroke-width="0.3"><path d="
M 359.00 447.00 
C 359.05 446.74 358.01 445.99 359.00 445.00
C 317.41 445.45 278.57 428.69 250.00 398.00
C 241.61 407.18 233.14 415.02 222.70 421.70 C 212.26 428.37 201.28 434.19 189.02 438.02 C 176.77 441.86 159.44 445.60 146.00 445.00 C 132.56 444.40 129.31 428.49 122.92 418.08 C 116.54 407.66 113.40 392.90 110.93 380.07 C 108.46 367.24 107.22 348.52 110.00 335.00
C 93.88 331.54 77.65 322.98 64.08 313.92 C 50.51 304.86 39.65 294.25 29.92 281.08 C 20.19 267.91 9.48 251.48 19.08 237.08 C 28.68 222.68 34.99 210.65 48.25 199.25 C 61.51 187.84 72.99 178.74 89.00 173.00
C 90.32 160.15 99.29 147.42 110.00 140.00
C 104.48 108.39 125.04 82.15 139.00 56.00
C 137.00 56.00 135.00 55.94 133.00 56.00
C 121.10 56.33 107.17 59.45 96.68 63.68 C 86.18 67.90 75.84 71.14 67.30 77.30 C 58.75 83.45 51.50 88.90 43.75 96.75 C 36.01 104.60 29.88 111.98 24.30 121.30 C 18.73 130.63 13.56 139.24 9.99 149.99 C 6.42 160.75 3.40 173.71 3.00 186.00 C 2.60 198.29 2.38 215.03 5.07 226.93 C 7.77 238.82 14.29 249.03 8.78 260.78 C 3.27 272.52 4.21 285.03 3.00 298.00 C 1.79 310.97 4.21 325.38 7.00 337.00 C 9.80 348.62 13.27 358.68 18.68 368.32 C 24.08 377.97 28.71 387.24 36.08 394.92 C 43.46 402.60 49.45 410.10 57.92 416.08 C 66.39 422.07 74.73 428.13 84.92 432.08 C 95.10 436.03 105.67 442.19 117.33 442.67 C 128.99 443.16 141.84 446.16 148.30 455.70 C 154.75 465.25 163.24 467.85 171.92 475.08 C 180.59 482.31 190.31 484.81 200.78 489.22 C 211.24 493.63 223.91 496.38 236.00 497.00 C 248.09 497.62 266.80 497.29 278.00 495.00 C 289.20 492.70 301.46 489.76 310.77 484.77 C 320.08 479.78 330.53 475.25 337.30 468.30 C 344.07 461.35 357.13 456.49 359.00 447.00 Z"/>
</g>
<g fill="None" fill-opacity="0.0" stroke="#F36F23" stroke-opacity="1.00" stroke-width="0.3"><path d="
M 221.00 152.00 
C 229.30 147.23 234.35 143.14 244.02 141.02 C 253.69 138.90 264.39 143.35 273.00 139.00
C 269.39 125.55 259.61 114.22 251.00 103.00
C 242.42 107.38 239.51 118.34 233.30 125.30 C 227.09 132.27 227.14 145.36 221.00 152.00 Z"/>
</g>
<g fill="None" fill-opacity="0.0" stroke="#FEFDFD" stroke-opacity="1.00" stroke-width="0.3"><path d="
M 110.00 140.00 
C 99.29 147.42 90.32 160.15 89.00 173.00
C 88.07 182.04 90.80 192.94 96.23 199.77 C 101.66 206.60 105.53 212.32 111.25 218.75 C 116.97 225.19 120.36 230.17 126.25 236.75 C 132.14 243.34 134.76 248.49 141.75 255.25 C 148.74 262.01 138.94 265.96 133.25 272.25 C 127.55 278.54 123.95 287.15 123.00 295.00
C 120.87 312.66 134.06 330.76 149.00 339.00
C 161.35 345.81 175.70 348.49 188.98 353.02 C 202.25 357.56 216.82 362.00 230.00 366.00
C 241.77 369.57 253.95 373.33 266.00 376.00
C 293.43 382.08 317.88 352.34 337.00 336.00
C 350.22 324.70 371.02 313.13 380.00 298.00
C 393.41 275.41 375.36 245.29 367.00 224.00
C 358.72 202.90 348.38 182.18 336.00 163.00
C 321.69 140.82 299.79 125.46 273.00 139.00
C 264.39 143.35 253.69 138.90 244.02 141.02 C 234.35 143.14 229.30 147.23 221.00 152.00
C 212.14 157.10 197.54 154.59 189.08 163.08 C 180.62 171.57 174.41 156.91 167.77 150.23 C 161.13 143.55 153.87 134.31 143.00 133.00 C 132.13 131.69 119.51 133.41 110.00 140.00
M 141.00 161.00 
C 152.82 168.32 159.53 183.07 169.25 192.75 C 178.98 202.42 188.05 214.53 197.00 225.00
C 199.85 228.33 207.18 234.51 208.75 238.25 C 210.32 241.99 222.17 251.52 221.00 243.00
C 220.35 242.01 219.67 240.91 219.00 240.00
C 214.38 233.72 209.52 226.89 205.00 221.00
C 200.13 214.64 189.11 205.84 192.93 196.93 C 196.74 188.02 205.68 181.60 215.00 181.00
C 224.29 180.40 226.60 189.43 231.77 195.23 C 236.94 201.03 240.61 207.98 245.00 214.00
C 249.05 219.56 258.33 223.82 252.00 214.00
C 250.92 212.33 250.07 210.61 249.00 209.00
C 243.67 200.99 236.24 195.59 233.23 185.77 C 230.22 175.95 243.87 166.29 254.00 167.00 C 264.13 167.71 268.84 179.70 274.00 187.00
C 277.61 192.11 283.85 197.96 286.00 204.00
C 287.39 205.24 289.02 206.34 291.00 206.00
C 288.30 192.75 267.24 176.20 283.00 164.00
C 292.71 157.27 301.95 161.61 308.00 170.00
C 315.36 180.20 322.31 190.82 327.77 202.23 C 333.23 213.64 340.03 226.19 343.78 238.22 C 347.53 250.26 356.99 265.44 357.00 278.00 C 357.00 290.57 340.24 296.77 332.25 305.25 C 324.25 313.73 311.92 321.23 303.00 329.00
C 296.18 334.94 287.58 345.40 279.00 348.00
C 268.76 351.11 257.05 345.43 247.00 343.00 C 236.94 340.58 226.57 336.03 217.00 333.00
C 211.17 331.16 204.96 329.91 199.00 328.00
C 185.15 323.56 172.26 320.61 159.25 313.75 C 146.24 306.89 148.28 284.98 164.07 283.07 C 179.87 281.17 194.40 288.36 208.00 294.00
C 205.39 286.61 197.17 282.21 194.00 275.00
C 185.57 264.22 175.68 251.68 166.00 242.00
C 153.83 229.83 146.12 216.57 134.23 203.77 C 122.34 190.97 106.74 176.47 126.00 162.00
C 130.60 158.55 136.08 157.96 141.00 161.00 Z"/>
</g>
<g fill="None" fill-opacity="0.0" stroke="#F79944" stroke-opacity="1.00" stroke-width="0.3"><path d="
M 126.00 162.00 
C 129.03 160.99 137.84 160.06 141.00 161.00
C 136.08 157.96 130.60 158.55 126.00 162.00 Z"/>
</g>
<g fill="None" fill-opacity="0.0" stroke="#F36F24" stroke-opacity="1.00" stroke-width="0.3"><path d="
M 126.00 162.00 
C 106.74 176.47 122.34 190.97 134.23 203.77 C 146.12 216.57 153.83 229.83 166.00 242.00
C 166.13 238.10 177.44 234.40 180.23 232.23 C 183.02 230.06 193.27 224.04 197.00 225.00
C 188.05 214.53 178.98 202.42 169.25 192.75 C 159.53 183.07 152.82 168.32 141.00 161.00
C 137.84 160.06 129.03 160.99 126.00 162.00 Z"/>
</g>
<g fill="None" fill-opacity="0.0" stroke="#F68B25" stroke-opacity="1.00" stroke-width="0.3"><path d="
M 283.00 164.00 
C 281.17 168.38 286.96 174.27 285.00 179.00
C 292.92 177.07 299.58 170.88 308.00 170.00
C 301.95 161.61 292.71 157.27 283.00 164.00 Z"/>
</g>
<g fill="None" fill-opacity="0.0" stroke="#F36F23" stroke-opacity="1.00" stroke-width="0.3"><path d="
M 336.00 163.00 
C 348.38 182.18 358.72 202.90 367.00 224.00
C 375.12 215.05 379.23 203.85 383.68 192.68 C 388.13 181.51 395.47 163.18 379.07 162.93 C 362.67 162.67 351.64 158.15 336.00 163.00 Z"/>
</g>
<g fill="None" fill-opacity="0.0" stroke="#F36E23" stroke-opacity="1.00" stroke-width="0.3"><path d="
M 286.00 204.00 
C 287.65 208.63 285.92 213.28 285.00 218.00
C 306.56 223.75 326.89 234.16 344.00 249.00
C 329.80 266.99 306.56 276.36 285.00 282.00
C 285.01 282.50 285.00 283.00 285.00 283.00
C 289.02 294.34 285.56 309.08 286.00 321.00
C 290.76 322.87 297.81 329.49 303.00 329.00
C 311.92 321.23 324.25 313.73 332.25 305.25 C 340.24 296.77 357.00 290.57 357.00 278.00 C 356.99 265.44 347.53 250.26 343.78 238.22 C 340.03 226.19 333.23 213.64 327.77 202.23 C 322.31 190.82 315.36 180.20 308.00 170.00
C 299.58 170.88 292.92 177.07 285.00 179.00
C 286.96 174.27 281.17 168.38 283.00 164.00
C 267.24 176.20 288.30 192.75 291.00 206.00
C 289.02 206.34 287.39 205.24 286.00 204.00 Z"/>
</g>
<g fill="None" fill-opacity="0.0" stroke="#F36F25" stroke-opacity="1.00" stroke-width="0.3"><path d="
M 249.00 209.00 
C 251.56 205.20 258.89 202.31 260.75 197.75 C 262.62 193.19 273.10 190.79 274.00 187.00
C 268.84 179.70 264.13 167.71 254.00 167.00 C 243.87 166.29 230.22 175.95 233.23 185.77 C 236.24 195.59 243.67 200.99 249.00 209.00 Z"/>
</g>
<g fill="None" fill-opacity="0.0" stroke="#F37026" stroke-opacity="1.00" stroke-width="0.3"><path d="
M 205.00 221.00 
C 208.61 221.55 215.86 218.40 214.67 214.33 C 213.47 210.26 213.28 202.01 214.00 198.00 C 214.72 193.99 211.58 183.35 215.00 181.00
C 205.68 181.60 196.74 188.02 192.93 196.93 C 189.11 205.84 200.13 214.64 205.00 221.00 Z"/>
</g>
<g fill="None" fill-opacity="0.0" stroke="#F15A26" stroke-opacity="1.00" stroke-width="0.3"><path d="
M 205.00 221.00 
C 209.52 226.89 214.38 233.72 219.00 240.00
C 218.15 236.86 220.34 231.75 217.07 225.92 C 213.79 220.09 220.47 214.65 227.01 216.01 C 233.55 217.37 238.18 211.73 245.00 214.00
C 240.61 207.98 236.94 201.03 231.77 195.23 C 226.60 189.43 224.29 180.40 215.00 181.00
C 211.58 183.35 214.72 193.99 214.00 198.00 C 213.28 202.01 213.47 210.26 214.67 214.33 C 215.86 218.40 208.61 221.55 205.00 221.00 Z"/>
</g>
<g fill="None" fill-opacity="0.0" stroke="#F05822" stroke-opacity="1.00" stroke-width="0.3"><path d="
M 249.00 209.00 
C 250.07 210.61 250.92 212.33 252.00 214.00
C 261.48 211.90 267.14 217.09 277.22 216.78 C 287.30 216.47 284.53 226.46 281.67 234.67 C 278.82 242.88 276.04 249.35 278.77 257.23 C 281.50 265.11 284.80 273.59 285.00 282.00
C 306.56 276.36 329.80 266.99 344.00 249.00
C 326.89 234.16 306.56 223.75 285.00 218.00
C 285.92 213.28 287.65 208.63 286.00 204.00
C 283.85 197.96 277.61 192.11 274.00 187.00
C 273.10 190.79 262.62 193.19 260.75 197.75 C 258.89 202.31 251.56 205.20 249.00 209.00 Z"/>
</g>
<g fill="None" fill-opacity="0.0" stroke="#EE4123" stroke-opacity="1.00" stroke-width="0.3"><path d="
M 252.00 214.00 
C 258.33 223.82 249.05 219.56 245.00 214.00
C 238.18 211.73 233.55 217.37 227.01 216.01 C 220.47 214.65 213.79 220.09 217.07 225.92 C 220.34 231.75 218.15 236.86 219.00 240.00
C 219.67 240.91 220.35 242.01 221.00 243.00
C 228.71 254.69 214.26 265.31 216.02 278.02 C 217.78 290.74 244.89 279.75 250.00 292.00
C 258.77 282.15 273.40 286.46 285.00 283.00
C 285.00 283.00 285.01 282.50 285.00 282.00
C 284.80 273.59 281.50 265.11 278.77 257.23 C 276.04 249.35 278.82 242.88 281.67 234.67 C 284.53 226.46 287.30 216.47 277.22 216.78 C 267.14 217.09 261.48 211.90 252.00 214.00 Z"/>
</g>
<g fill="None" fill-opacity="0.0" stroke="#F15823" stroke-opacity="1.00" stroke-width="0.3"><path d="
M 166.00 242.00 
C 175.68 251.68 185.57 264.22 194.00 275.00
C 200.20 278.88 208.23 279.64 215.00 282.00
C 213.78 294.56 213.06 308.47 215.00 321.00
C 227.63 313.81 239.45 304.58 249.00 293.00
C 260.79 302.23 272.31 313.67 285.00 321.00
C 285.19 321.24 286.00 321.00 286.00 321.00
C 285.56 309.08 289.02 294.34 285.00 283.00
C 273.40 286.46 258.77 282.15 250.00 292.00
C 244.89 279.75 217.78 290.74 216.02 278.02 C 214.26 265.31 228.71 254.69 221.00 243.00
C 222.17 251.52 210.32 241.99 208.75 238.25 C 207.18 234.51 199.85 228.33 197.00 225.00
C 193.27 224.04 183.02 230.06 180.23 232.23 C 177.44 234.40 166.13 238.10 166.00 242.00 Z"/>
</g>
<g fill="None" fill-opacity="0.0" stroke="#F36F24" stroke-opacity="1.00" stroke-width="0.3"><path d="
M 199.00 328.00 
C 204.28 328.05 209.82 322.58 215.00 321.00
C 215.30 325.08 217.02 328.80 217.00 333.00
C 226.57 336.03 236.94 340.58 247.00 343.00 C 257.05 345.43 268.76 351.11 279.00 348.00
C 281.83 345.68 282.06 339.71 282.98 335.98 C 283.89 332.24 285.16 325.23 285.00 321.00
C 272.31 313.67 260.79 302.23 249.00 293.00
C 239.45 304.58 227.63 313.81 215.00 321.00
C 213.06 308.47 213.78 294.56 215.00 282.00
C 208.23 279.64 200.20 278.88 194.00 275.00
C 197.17 282.21 205.39 286.61 208.00 294.00
C 194.40 288.36 179.87 281.17 164.07 283.07 C 148.28 284.98 146.24 306.89 159.25 313.75 C 172.26 320.61 185.15 323.56 199.00 328.00 Z"/>
</g>
<g fill="None" fill-opacity="0.0" stroke="#F37126" stroke-opacity="1.00" stroke-width="0.3"><path d="
M 149.00 339.00 
C 134.06 330.76 120.87 312.66 123.00 295.00
C 114.90 306.34 112.70 321.36 110.00 335.00
C 122.18 340.02 136.96 337.69 149.00 339.00 Z"/>
</g>
<g fill="None" fill-opacity="0.0" stroke="#F36F24" stroke-opacity="1.00" stroke-width="0.3"><path d="
M 337.00 336.00 
C 336.17 339.02 348.75 340.03 354.00 339.00 C 359.25 337.97 369.00 341.05 375.00 338.00 C 381.00 334.94 388.54 341.77 389.99 331.01 C 391.45 320.25 380.07 308.10 380.00 298.00
C 371.02 313.13 350.22 324.70 337.00 336.00 Z"/>
</g>
<g fill="None" fill-opacity="0.0" stroke="#F58B28" stroke-opacity="1.00" stroke-width="0.3"><path d="
M 199.00 328.00 
C 204.96 329.91 211.17 331.16 217.00 333.00
C 217.02 328.80 215.30 325.08 215.00 321.00
C 209.82 322.58 204.28 328.05 199.00 328.00 Z"/>
</g>
<g fill="None" fill-opacity="0.0" stroke="#F68C27" stroke-opacity="1.00" stroke-width="0.3"><path d="
M 279.00 348.00 
C 287.58 345.40 296.18 334.94 303.00 329.00
C 297.81 329.49 290.76 322.87 286.00 321.00
C 286.00 321.00 285.19 321.24 285.00 321.00
C 285.16 325.23 283.89 332.24 282.98 335.98 C 282.06 339.71 281.83 345.68 279.00 348.00 Z"/>
</g>
<g fill="None" fill-opacity="0.0" stroke="#F37025" stroke-opacity="1.00" stroke-width="0.3"><path d="
M 266.00 376.00 
C 253.95 373.33 241.77 369.57 230.00 366.00
C 227.05 367.60 235.31 376.48 236.75 380.25 C 238.18 384.02 243.53 387.52 246.23 392.77 C 248.93 398.02 254.64 394.82 257.23 389.23 C 259.82 383.64 264.65 381.91 266.00 376.00 Z"/>
</g>
<g fill="None" fill-opacity="0.0" stroke="#FBAF15" stroke-opacity="0.58" stroke-width="0.3"><path d="
M 359.00 445.00 
C 358.01 445.99 359.05 446.74 359.00 447.00
C 360.60 445.51 361.98 445.40 364.00 445.00
C 363.15 444.76 363.43 444.04 362.00 444.00
C 360.62 443.96 360.16 444.77 359.00 445.00 Z"/>
</g>
<g fill="#000000" fill-opacity="0.00" stroke="None">
<path d="
M 0.00 500.00 
L 500.00 500.00
L 500.00 0.00
L 0.00 0.00
L 0.00 500.00
M 360.00 55.00 
C 360.32 54.76 361.00 55.00 361.00 55.00
C 373.14 53.69 387.97 59.15 399.03 61.97 C 410.08 64.80 420.48 70.19 430.08 75.92 C 439.68 81.65 447.24 87.51 455.25 95.75 C 463.26 103.99 469.65 110.65 475.75 120.25 C 481.86 129.85 486.19 139.73 489.99 151.01 C 493.79 162.28 497.84 175.78 497.00 189.00 C 496.16 202.22 498.77 218.60 494.02 231.02 C 489.28 243.45 487.55 253.44 493.31 265.69 C 499.06 277.94 495.76 293.71 497.00 307.00 C 498.24 320.29 494.90 334.77 491.22 346.22 C 487.55 357.67 483.39 367.59 477.23 377.23 C 471.07 386.87 465.74 394.62 457.75 402.75 C 449.76 410.88 442.08 417.00 432.75 422.75 C 423.42 428.50 413.20 435.17 402.33 437.33 C 391.45 439.48 375.68 448.29 364.00 445.00
C 361.98 445.40 360.60 445.51 359.00 447.00
C 357.13 456.49 344.07 461.35 337.30 468.30 C 330.53 475.25 320.08 479.78 310.77 484.77 C 301.46 489.76 289.20 492.70 278.00 495.00 C 266.80 497.29 248.09 497.62 236.00 497.00 C 223.91 496.38 211.24 493.63 200.78 489.22 C 190.31 484.81 180.59 482.31 171.92 475.08 C 163.24 467.85 154.75 465.25 148.30 455.70 C 141.84 446.16 128.99 443.16 117.33 442.67 C 105.67 442.19 95.10 436.03 84.92 432.08 C 74.73 428.13 66.39 422.07 57.92 416.08 C 49.45 410.10 43.46 402.60 36.08 394.92 C 28.71 387.24 24.08 377.97 18.68 368.32 C 13.27 358.68 9.80 348.62 7.00 337.00 C 4.21 325.38 1.79 310.97 3.00 298.00 C 4.21 285.03 3.27 272.52 8.78 260.78 C 14.29 249.03 7.77 238.82 5.07 226.93 C 2.38 215.03 2.60 198.29 3.00 186.00 C 3.40 173.71 6.42 160.75 9.99 149.99 C 13.56 139.24 18.73 130.63 24.30 121.30 C 29.88 111.98 36.01 104.60 43.75 96.75 C 51.50 88.90 58.75 83.45 67.30 77.30 C 75.84 71.14 86.18 67.90 96.68 63.68 C 107.17 59.45 121.10 56.33 133.00 56.00
C 135.71 55.61 138.78 54.68 141.00 53.00
C 148.52 39.47 162.82 32.27 175.25 23.25 C 187.67 14.23 205.50 8.93 221.07 5.07 C 236.65 1.21 264.81 2.02 280.22 5.78 C 295.63 9.54 314.14 14.22 326.08 23.92 C 338.02 33.61 355.35 40.80 360.00 55.00 Z"/>
</g>
<g fill="#FBB115" fill-opacity="0.98" stroke="None">
<path d="
M 141.00 53.00 
C 141.04 52.94 141.04 55.15 140.00 56.00
C 181.53 56.00 221.36 69.56 249.00 102.00
C 278.89 72.66 318.00 54.41 360.00 55.00
C 355.35 40.80 338.02 33.61 326.08 23.92 C 314.14 14.22 295.63 9.54 280.22 5.78 C 264.81 2.02 236.65 1.21 221.07 5.07 C 205.50 8.93 187.67 14.23 175.25 23.25 C 162.82 32.27 148.52 39.47 141.00 53.00 Z"/>
</g>
<g fill="#FCB216" fill-opacity="0.18" stroke="None">
<path d="
M 133.00 56.00 
C 135.00 55.94 137.00 56.00 139.00 56.00
C 139.50 56.00 140.00 56.00 140.00 56.00
C 141.04 55.15 141.04 52.94 141.00 53.00
C 138.78 54.68 135.71 55.61 133.00 56.00 Z"/>
</g>
<g fill="#F58A1F" fill-opacity="1.00" stroke="None">
<path d="
M 140.00 56.00 
C 140.00 56.00 139.50 56.00 139.00 56.00
C 125.04 82.15 104.48 108.39 110.00 140.00
C 119.51 133.41 132.13 131.69 143.00 133.00 C 153.87 134.31 161.13 143.55 167.77 150.23 C 174.41 156.91 180.62 171.57 189.08 163.08 C 197.54 154.59 212.14 157.10 221.00 152.00
C 227.14 145.36 227.09 132.27 233.30 125.30 C 239.51 118.34 242.42 107.38 251.00 103.00
C 259.61 114.22 269.39 125.55 273.00 139.00
C 299.79 125.46 321.69 140.82 336.00 163.00
C 351.64 158.15 362.67 162.67 379.07 162.93 C 395.47 163.18 388.13 181.51 383.68 192.68 C 379.23 203.85 375.12 215.05 367.00 224.00
C 375.36 245.29 393.41 275.41 380.00 298.00
C 380.07 308.10 391.45 320.25 389.99 331.01 C 388.54 341.77 381.00 334.94 375.00 338.00 C 369.00 341.05 359.25 337.97 354.00 339.00 C 348.75 340.03 336.17 339.02 337.00 336.00
C 317.88 352.34 293.43 382.08 266.00 376.00
C 264.65 381.91 259.82 383.64 257.23 389.23 C 254.64 394.82 248.93 398.02 246.23 392.77 C 243.53 387.52 238.18 384.02 236.75 380.25 C 235.31 376.48 227.05 367.60 230.00 366.00
C 216.82 362.00 202.25 357.56 188.98 353.02 C 175.70 348.49 161.35 345.81 149.00 339.00
C 136.96 337.69 122.18 340.02 110.00 335.00
C 112.70 321.36 114.90 306.34 123.00 295.00
C 123.95 287.15 127.55 278.54 133.25 272.25 C 138.94 265.96 148.74 262.01 141.75 255.25 C 134.76 248.49 132.14 243.34 126.25 236.75 C 120.36 230.17 116.97 225.19 111.25 218.75 C 105.53 212.32 101.66 206.60 96.23 199.77 C 90.80 192.94 88.07 182.04 89.00 173.00
C 72.99 178.74 61.51 187.84 48.25 199.25 C 34.99 210.65 28.68 222.68 19.08 237.08 C 9.48 251.48 20.19 267.91 29.92 281.08 C 39.65 294.25 50.51 304.86 64.08 313.92 C 77.65 322.98 93.88 331.54 110.00 335.00
C 107.22 348.52 108.46 367.24 110.93 380.07 C 113.40 392.90 116.54 407.66 122.92 418.08 C 129.31 428.49 132.56 444.40 146.00 445.00 C 159.44 445.60 176.77 441.86 189.02 438.02 C 201.28 434.19 212.26 428.37 222.70 421.70 C 233.14 415.02 241.61 407.18 250.00 398.00
C 278.57 428.69 317.41 445.45 359.00 445.00
C 360.16 444.77 360.62 443.96 362.00 444.00
C 370.89 436.96 372.67 424.94 378.92 414.92 C 385.18 404.91 387.58 391.41 390.00 379.00 C 392.42 366.59 392.12 348.25 391.00 335.00
C 403.74 331.85 415.56 326.39 427.08 320.08 C 438.59 313.76 446.21 306.42 456.25 297.25 C 466.29 288.08 470.05 279.22 478.31 268.30 C 486.56 257.39 487.71 243.86 479.08 232.92 C 470.45 221.98 467.19 213.10 457.25 203.75 C 447.31 194.40 439.49 187.40 427.92 181.08 C 416.36 174.75 404.19 168.16 391.00 166.00
C 395.97 125.78 384.86 86.36 361.00 55.00
C 361.00 55.00 360.32 54.76 360.00 55.00
C 318.00 54.41 278.89 72.66 249.00 102.00
C 221.36 69.56 181.53 56.00 140.00 56.00 Z"/>
</g>
<g fill="#FCB114" fill-opacity="0.98" stroke="None">
<path d="
M 362.00 444.00 
C 363.43 444.04 363.15 444.76 364.00 445.00
C 375.68 448.29 391.45 439.48 402.33 437.33 C 413.20 435.17 423.42 428.50 432.75 422.75 C 442.08 417.00 449.76 410.88 457.75 402.75 C 465.74 394.62 471.07 386.87 477.23 377.23 C 483.39 367.59 487.55 357.67 491.22 346.22 C 494.90 334.77 498.24 320.29 497.00 307.00 C 495.76 293.71 499.06 277.94 493.31 265.69 C 487.55 253.44 489.28 243.45 494.02 231.02 C 498.77 218.60 496.16 202.22 497.00 189.00 C 497.84 175.78 493.79 162.28 489.99 151.01 C 486.19 139.73 481.86 129.85 475.75 120.25 C 469.65 110.65 463.26 103.99 455.25 95.75 C 447.24 87.51 439.68 81.65 430.08 75.92 C 420.48 70.19 410.08 64.80 399.03 61.97 C 387.97 59.15 373.14 53.69 361.00 55.00
C 384.86 86.36 395.97 125.78 391.00 166.00
C 404.19 168.16 416.36 174.75 427.92 181.08 C 439.49 187.40 447.31 194.40 457.25 203.75 C 467.19 213.10 470.45 221.98 479.08 232.92 C 487.71 243.86 486.56 257.39 478.31 268.30 C 470.05 279.22 466.29 288.08 456.25 297.25 C 446.21 306.42 438.59 313.76 427.08 320.08 C 415.56 326.39 403.74 331.85 391.00 335.00
C 392.12 348.25 392.42 366.59 390.00 379.00 C 387.58 391.41 385.18 404.91 378.92 414.92 C 372.67 424.94 370.89 436.96 362.00 444.00 Z"/>
</g>
<g fill="#FBB114" fill-opacity="0.98" stroke="None">
<path d="
M 359.00 447.00 
C 359.05 446.74 358.01 445.99 359.00 445.00
C 317.41 445.45 278.57 428.69 250.00 398.00
C 241.61 407.18 233.14 415.02 222.70 421.70 C 212.26 428.37 201.28 434.19 189.02 438.02 C 176.77 441.86 159.44 445.60 146.00 445.00 C 132.56 444.40 129.31 428.49 122.92 418.08 C 116.54 407.66 113.40 392.90 110.93 380.07 C 108.46 367.24 107.22 348.52 110.00 335.00
C 93.88 331.54 77.65 322.98 64.08 313.92 C 50.51 304.86 39.65 294.25 29.92 281.08 C 20.19 267.91 9.48 251.48 19.08 237.08 C 28.68 222.68 34.99 210.65 48.25 199.25 C 61.51 187.84 72.99 178.74 89.00 173.00
C 90.32 160.15 99.29 147.42 110.00 140.00
C 104.48 108.39 125.04 82.15 139.00 56.00
C 137.00 56.00 135.00 55.94 133.00 56.00
C 121.10 56.33 107.17 59.45 96.68 63.68 C 86.18 67.90 75.84 71.14 67.30 77.30 C 58.75 83.45 51.50 88.90 43.75 96.75 C 36.01 104.60 29.88 111.98 24.30 121.30 C 18.73 130.63 13.56 139.24 9.99 149.99 C 6.42 160.75 3.40 173.71 3.00 186.00 C 2.60 198.29 2.38 215.03 5.07 226.93 C 7.77 238.82 14.29 249.03 8.78 260.78 C 3.27 272.52 4.21 285.03 3.00 298.00 C 1.79 310.97 4.21 325.38 7.00 337.00 C 9.80 348.62 13.27 358.68 18.68 368.32 C 24.08 377.97 28.71 387.24 36.08 394.92 C 43.46 402.60 49.45 410.10 57.92 416.08 C 66.39 422.07 74.73 428.13 84.92 432.08 C 95.10 436.03 105.67 442.19 117.33 442.67 C 128.99 443.16 141.84 446.16 148.30 455.70 C 154.75 465.25 163.24 467.85 171.92 475.08 C 180.59 482.31 190.31 484.81 200.78 489.22 C 211.24 493.63 223.91 496.38 236.00 497.00 C 248.09 497.62 266.80 497.29 278.00 495.00 C 289.20 492.70 301.46 489.76 310.77 484.77 C 320.08 479.78 330.53 475.25 337.30 468.30 C 344.07 461.35 357.13 456.49 359.00 447.00 Z"/>
</g>
<g fill="#F36F23" fill-opacity="1.00" stroke="None">
<path d="
M 221.00 152.00 
C 229.30 147.23 234.35 143.14 244.02 141.02 C 253.69 138.90 264.39 143.35 273.00 139.00
C 269.39 125.55 259.61 114.22 251.00 103.00
C 242.42 107.38 239.51 118.34 233.30 125.30 C 227.09 132.27 227.14 145.36 221.00 152.00 Z"/>
</g>
<g fill="#FEFDFD" fill-opacity="1.00" stroke="None">
<path d="
M 110.00 140.00 
C 99.29 147.42 90.32 160.15 89.00 173.00
C 88.07 182.04 90.80 192.94 96.23 199.77 C 101.66 206.60 105.53 212.32 111.25 218.75 C 116.97 225.19 120.36 230.17 126.25 236.75 C 132.14 243.34 134.76 248.49 141.75 255.25 C 148.74 262.01 138.94 265.96 133.25 272.25 C 127.55 278.54 123.95 287.15 123.00 295.00
C 120.87 312.66 134.06 330.76 149.00 339.00
C 161.35 345.81 175.70 348.49 188.98 353.02 C 202.25 357.56 216.82 362.00 230.00 366.00
C 241.77 369.57 253.95 373.33 266.00 376.00
C 293.43 382.08 317.88 352.34 337.00 336.00
C 350.22 324.70 371.02 313.13 380.00 298.00
C 393.41 275.41 375.36 245.29 367.00 224.00
C 358.72 202.90 348.38 182.18 336.00 163.00
C 321.69 140.82 299.79 125.46 273.00 139.00
C 264.39 143.35 253.69 138.90 244.02 141.02 C 234.35 143.14 229.30 147.23 221.00 152.00
C 212.14 157.10 197.54 154.59 189.08 163.08 C 180.62 171.57 174.41 156.91 167.77 150.23 C 161.13 143.55 153.87 134.31 143.00 133.00 C 132.13 131.69 119.51 133.41 110.00 140.00
M 141.00 161.00 
C 152.82 168.32 159.53 183.07 169.25 192.75 C 178.98 202.42 188.05 214.53 197.00 225.00
C 199.85 228.33 207.18 234.51 208.75 238.25 C 210.32 241.99 222.17 251.52 221.00 243.00
C 220.35 242.01 219.67 240.91 219.00 240.00
C 214.38 233.72 209.52 226.89 205.00 221.00
C 200.13 214.64 189.11 205.84 192.93 196.93 C 196.74 188.02 205.68 181.60 215.00 181.00
C 224.29 180.40 226.60 189.43 231.77 195.23 C 236.94 201.03 240.61 207.98 245.00 214.00
C 249.05 219.56 258.33 223.82 252.00 214.00
C 250.92 212.33 250.07 210.61 249.00 209.00
C 243.67 200.99 236.24 195.59 233.23 185.77 C 230.22 175.95 243.87 166.29 254.00 167.00 C 264.13 167.71 268.84 179.70 274.00 187.00
C 277.61 192.11 283.85 197.96 286.00 204.00
C 287.39 205.24 289.02 206.34 291.00 206.00
C 288.30 192.75 267.24 176.20 283.00 164.00
C 292.71 157.27 301.95 161.61 308.00 170.00
C 315.36 180.20 322.31 190.82 327.77 202.23 C 333.23 213.64 340.03 226.19 343.78 238.22 C 347.53 250.26 356.99 265.44 357.00 278.00 C 357.00 290.57 340.24 296.77 332.25 305.25 C 324.25 313.73 311.92 321.23 303.00 329.00
C 296.18 334.94 287.58 345.40 279.00 348.00
C 268.76 351.11 257.05 345.43 247.00 343.00 C 236.94 340.58 226.57 336.03 217.00 333.00
C 211.17 331.16 204.96 329.91 199.00 328.00
C 185.15 323.56 172.26 320.61 159.25 313.75 C 146.24 306.89 148.28 284.98 164.07 283.07 C 179.87 281.17 194.40 288.36 208.00 294.00
C 205.39 286.61 197.17 282.21 194.00 275.00
C 185.57 264.22 175.68 251.68 166.00 242.00
C 153.83 229.83 146.12 216.57 134.23 203.77 C 122.34 190.97 106.74 176.47 126.00 162.00
C 130.60 158.55 136.08 157.96 141.00 161.00 Z"/>
</g>
<g fill="#F79944" fill-opacity="1.00" stroke="None">
<path d="
M 126.00 162.00 
C 129.03 160.99 137.84 160.06 141.00 161.00
C 136.08 157.96 130.60 158.55 126.00 162.00 Z"/>
</g>
<g fill="#F36F24" fill-opacity="1.00" stroke="None">
<path d="
M 126.00 162.00 
C 106.74 176.47 122.34 190.97 134.23 203.77 C 146.12 216.57 153.83 229.83 166.00 242.00
C 166.13 238.10 177.44 234.40 180.23 232.23 C 183.02 230.06 193.27 224.04 197.00 225.00
C 188.05 214.53 178.98 202.42 169.25 192.75 C 159.53 183.07 152.82 168.32 141.00 161.00
C 137.84 160.06 129.03 160.99 126.00 162.00 Z"/>
</g>
<g fill="#F68B25" fill-opacity="1.00" stroke="None">
<path d="
M 283.00 164.00 
C 281.17 168.38 286.96 174.27 285.00 179.00
C 292.92 177.07 299.58 170.88 308.00 170.00
C 301.95 161.61 292.71 157.27 283.00 164.00 Z"/>
</g>
<g fill="#F36F23" fill-opacity="1.00" stroke="None">
<path d="
M 336.00 163.00 
C 348.38 182.18 358.72 202.90 367.00 224.00
C 375.12 215.05 379.23 203.85 383.68 192.68 C 388.13 181.51 395.47 163.18 379.07 162.93 C 362.67 162.67 351.64 158.15 336.00 163.00 Z"/>
</g>
<g fill="#F36E23" fill-opacity="1.00" stroke="None">
<path d="
M 286.00 204.00 
C 287.65 208.63 285.92 213.28 285.00 218.00
C 306.56 223.75 326.89 234.16 344.00 249.00
C 329.80 266.99 306.56 276.36 285.00 282.00
C 285.01 282.50 285.00 283.00 285.00 283.00
C 289.02 294.34 285.56 309.08 286.00 321.00
C 290.76 322.87 297.81 329.49 303.00 329.00
C 311.92 321.23 324.25 313.73 332.25 305.25 C 340.24 296.77 357.00 290.57 357.00 278.00 C 356.99 265.44 347.53 250.26 343.78 238.22 C 340.03 226.19 333.23 213.64 327.77 202.23 C 322.31 190.82 315.36 180.20 308.00 170.00
C 299.58 170.88 292.92 177.07 285.00 179.00
C 286.96 174.27 281.17 168.38 283.00 164.00
C 267.24 176.20 288.30 192.75 291.00 206.00
C 289.02 206.34 287.39 205.24 286.00 204.00 Z"/>
</g>
<g fill="#F36F25" fill-opacity="1.00" stroke="None">
<path d="
M 249.00 209.00 
C 251.56 205.20 258.89 202.31 260.75 197.75 C 262.62 193.19 273.10 190.79 274.00 187.00
C 268.84 179.70 264.13 167.71 254.00 167.00 C 243.87 166.29 230.22 175.95 233.23 185.77 C 236.24 195.59 243.67 200.99 249.00 209.00 Z"/>
</g>
<g fill="#F37026" fill-opacity="1.00" stroke="None">
<path d="
M 205.00 221.00 
C 208.61 221.55 215.86 218.40 214.67 214.33 C 213.47 210.26 213.28 202.01 214.00 198.00 C 214.72 193.99 211.58 183.35 215.00 181.00
C 205.68 181.60 196.74 188.02 192.93 196.93 C 189.11 205.84 200.13 214.64 205.00 221.00 Z"/>
</g>
<g fill="#F15A26" fill-opacity="1.00" stroke="None">
<path d="
M 205.00 221.00 
C 209.52 226.89 214.38 233.72 219.00 240.00
C 218.15 236.86 220.34 231.75 217.07 225.92 C 213.79 220.09 220.47 214.65 227.01 216.01 C 233.55 217.37 238.18 211.73 245.00 214.00
C 240.61 207.98 236.94 201.03 231.77 195.23 C 226.60 189.43 224.29 180.40 215.00 181.00
C 211.58 183.35 214.72 193.99 214.00 198.00 C 213.28 202.01 213.47 210.26 214.67 214.33 C 215.86 218.40 208.61 221.55 205.00 221.00 Z"/>
</g>
<g fill="#F05822" fill-opacity="1.00" stroke="None">
<path d="
M 249.00 209.00 
C 250.07 210.61 250.92 212.33 252.00 214.00
C 261.48 211.90 267.14 217.09 277.22 216.78 C 287.30 216.47 284.53 226.46 281.67 234.67 C 278.82 242.88 276.04 249.35 278.77 257.23 C 281.50 265.11 284.80 273.59 285.00 282.00
C 306.56 276.36 329.80 266.99 344.00 249.00
C 326.89 234.16 306.56 223.75 285.00 218.00
C 285.92 213.28 287.65 208.63 286.00 204.00
C 283.85 197.96 277.61 192.11 274.00 187.00
C 273.10 190.79 262.62 193.19 260.75 197.75 C 258.89 202.31 251.56 205.20 249.00 209.00 Z"/>
</g>
<g fill="#EE4123" fill-opacity="1.00" stroke="None">
<path d="
M 252.00 214.00 
C 258.33 223.82 249.05 219.56 245.00 214.00
C 238.18 211.73 233.55 217.37 227.01 216.01 C 220.47 214.65 213.79 220.09 217.07 225.92 C 220.34 231.75 218.15 236.86 219.00 240.00
C 219.67 240.91 220.35 242.01 221.00 243.00
C 228.71 254.69 214.26 265.31 216.02 278.02 C 217.78 290.74 244.89 279.75 250.00 292.00
C 258.77 282.15 273.40 286.46 285.00 283.00
C 285.00 283.00 285.01 282.50 285.00 282.00
C 284.80 273.59 281.50 265.11 278.77 257.23 C 276.04 249.35 278.82 242.88 281.67 234.67 C 284.53 226.46 287.30 216.47 277.22 216.78 C 267.14 217.09 261.48 211.90 252.00 214.00 Z"/>
</g>
<g fill="#F15823" fill-opacity="1.00" stroke="None">
<path d="
M 166.00 242.00 
C 175.68 251.68 185.57 264.22 194.00 275.00
C 200.20 278.88 208.23 279.64 215.00 282.00
C 213.78 294.56 213.06 308.47 215.00 321.00
C 227.63 313.81 239.45 304.58 249.00 293.00
C 260.79 302.23 272.31 313.67 285.00 321.00
C 285.19 321.24 286.00 321.00 286.00 321.00
C 285.56 309.08 289.02 294.34 285.00 283.00
C 273.40 286.46 258.77 282.15 250.00 292.00
C 244.89 279.75 217.78 290.74 216.02 278.02 C 214.26 265.31 228.71 254.69 221.00 243.00
C 222.17 251.52 210.32 241.99 208.75 238.25 C 207.18 234.51 199.85 228.33 197.00 225.00
C 193.27 224.04 183.02 230.06 180.23 232.23 C 177.44 234.40 166.13 238.10 166.00 242.00 Z"/>
</g>
<g fill="#F36F24" fill-opacity="1.00" stroke="None">
<path d="
M 199.00 328.00 
C 204.28 328.05 209.82 322.58 215.00 321.00
C 215.30 325.08 217.02 328.80 217.00 333.00
C 226.57 336.03 236.94 340.58 247.00 343.00 C 257.05 345.43 268.76 351.11 279.00 348.00
C 281.83 345.68 282.06 339.71 282.98 335.98 C 283.89 332.24 285.16 325.23 285.00 321.00
C 272.31 313.67 260.79 302.23 249.00 293.00
C 239.45 304.58 227.63 313.81 215.00 321.00
C 213.06 308.47 213.78 294.56 215.00 282.00
C 208.23 279.64 200.20 278.88 194.00 275.00
C 197.17 282.21 205.39 286.61 208.00 294.00
C 194.40 288.36 179.87 281.17 164.07 283.07 C 148.28 284.98 146.24 306.89 159.25 313.75 C 172.26 320.61 185.15 323.56 199.00 328.00 Z"/>
</g>
<g fill="#F37126" fill-opacity="1.00" stroke="None">
<path d="
M 149.00 339.00 
C 134.06 330.76 120.87 312.66 123.00 295.00
C 114.90 306.34 112.70 321.36 110.00 335.00
C 122.18 340.02 136.96 337.69 149.00 339.00 Z"/>
</g>
<g fill="#F36F24" fill-opacity="1.00" stroke="None">
<path d="
M 337.00 336.00 
C 336.17 339.02 348.75 340.03 354.00 339.00 C 359.25 337.97 369.00 341.05 375.00 338.00 C 381.00 334.94 388.54 341.77 389.99 331.01 C 391.45 320.25 380.07 308.10 380.00 298.00
C 371.02 313.13 350.22 324.70 337.00 336.00 Z"/>
</g>
<g fill="#F58B28" fill-opacity="1.00" stroke="None">
<path d="
M 199.00 328.00 
C 204.96 329.91 211.17 331.16 217.00 333.00
C 217.02 328.80 215.30 325.08 215.00 321.00
C 209.82 322.58 204.28 328.05 199.00 328.00 Z"/>
</g>
<g fill="#F68C27" fill-opacity="1.00" stroke="None">
<path d="
M 279.00 348.00 
C 287.58 345.40 296.18 334.94 303.00 329.00
C 297.81 329.49 290.76 322.87 286.00 321.00
C 286.00 321.00 285.19 321.24 285.00 321.00
C 285.16 325.23 283.89 332.24 282.98 335.98 C 282.06 339.71 281.83 345.68 279.00 348.00 Z"/>
</g>
<g fill="#F37025" fill-opacity="1.00" stroke="None">
<path d="
M 266.00 376.00 
C 253.95 373.33 241.77 369.57 230.00 366.00
C 227.05 367.60 235.31 376.48 236.75 380.25 C 238.18 384.02 243.53 387.52 246.23 392.77 C 248.93 398.02 254.64 394.82 257.23 389.23 C 259.82 383.64 264.65 381.91 266.00 376.00 Z"/>
</g>
<g fill="#FBAF15" fill-opacity="0.58" stroke="None">
<path d="
M 359.00 445.00 
C 358.01 445.99 359.05 446.74 359.00 447.00
C 360.60 445.51 361.98 445.40 364.00 445.00
C 363.15 444.76 363.43 444.04 362.00 444.00
C 360.62 443.96 360.16 444.77 359.00 445.00 Z"/>
</g>
</svg>